<mxfile host="app.diagrams.net" agent="Mozilla/5.0 (Windows NT 10.0; Win64; x64; rv:133.0) Gecko/20100101 Firefox/133.0" version="25.0.3">
  <diagram name="Page-1" id="vStmz5GpWaQQJlcjut_7">
    <mxGraphModel dx="1562" dy="826" grid="1" gridSize="10" guides="1" tooltips="1" connect="1" arrows="1" fold="1" page="1" pageScale="1" pageWidth="827" pageHeight="1169" math="0" shadow="0">
      <root>
        <mxCell id="0" />
        <mxCell id="1" parent="0" />
        <mxCell id="bvGx9gOapEIWA2jtWDeD-3" style="rounded=0;orthogonalLoop=1;jettySize=auto;html=1;exitX=0;exitY=0.3333333333333333;exitDx=0;exitDy=0;exitPerimeter=0;entryX=0.5;entryY=1;entryDx=0;entryDy=0;" parent="1" source="bvGx9gOapEIWA2jtWDeD-1" target="bvGx9gOapEIWA2jtWDeD-2" edge="1">
          <mxGeometry relative="1" as="geometry" />
        </mxCell>
        <mxCell id="bvGx9gOapEIWA2jtWDeD-5" style="rounded=0;orthogonalLoop=1;jettySize=auto;html=1;exitX=1;exitY=0.3333333333333333;exitDx=0;exitDy=0;exitPerimeter=0;entryX=0.5;entryY=1;entryDx=0;entryDy=0;" parent="1" source="bvGx9gOapEIWA2jtWDeD-1" target="bvGx9gOapEIWA2jtWDeD-4" edge="1">
          <mxGeometry relative="1" as="geometry" />
        </mxCell>
        <mxCell id="bvGx9gOapEIWA2jtWDeD-1" value="Модератор" style="shape=umlActor;verticalLabelPosition=bottom;verticalAlign=top;html=1;outlineConnect=0;" parent="1" vertex="1">
          <mxGeometry x="370" y="300" width="30" height="60" as="geometry" />
        </mxCell>
        <mxCell id="bvGx9gOapEIWA2jtWDeD-2" value="&lt;div&gt;Действия&lt;br&gt;&lt;/div&gt;&lt;div&gt;пользователя&lt;br&gt;&lt;/div&gt;" style="ellipse;whiteSpace=wrap;html=1;" parent="1" vertex="1">
          <mxGeometry x="210" y="220" width="120" height="80" as="geometry" />
        </mxCell>
        <mxCell id="bvGx9gOapEIWA2jtWDeD-9" style="rounded=0;orthogonalLoop=1;jettySize=auto;html=1;exitX=1;exitY=0.5;exitDx=0;exitDy=0;entryX=0;entryY=1;entryDx=0;entryDy=0;dashed=1;" parent="1" source="bvGx9gOapEIWA2jtWDeD-4" target="bvGx9gOapEIWA2jtWDeD-8" edge="1">
          <mxGeometry relative="1" as="geometry" />
        </mxCell>
        <mxCell id="bvGx9gOapEIWA2jtWDeD-10" style="rounded=0;orthogonalLoop=1;jettySize=auto;html=1;exitX=0.5;exitY=0;exitDx=0;exitDy=0;entryX=0.5;entryY=1;entryDx=0;entryDy=0;dashed=1;" parent="1" source="bvGx9gOapEIWA2jtWDeD-4" target="bvGx9gOapEIWA2jtWDeD-7" edge="1">
          <mxGeometry relative="1" as="geometry" />
        </mxCell>
        <mxCell id="bvGx9gOapEIWA2jtWDeD-11" style="rounded=0;orthogonalLoop=1;jettySize=auto;html=1;exitX=0;exitY=0;exitDx=0;exitDy=0;entryX=0.5;entryY=1;entryDx=0;entryDy=0;dashed=1;" parent="1" source="bvGx9gOapEIWA2jtWDeD-4" target="bvGx9gOapEIWA2jtWDeD-6" edge="1">
          <mxGeometry relative="1" as="geometry" />
        </mxCell>
        <mxCell id="bvGx9gOapEIWA2jtWDeD-4" value="Модерация" style="ellipse;whiteSpace=wrap;html=1;" parent="1" vertex="1">
          <mxGeometry x="430" y="220" width="120" height="80" as="geometry" />
        </mxCell>
        <mxCell id="bvGx9gOapEIWA2jtWDeD-6" value="&lt;div&gt;Удаление&lt;/div&gt;&lt;div&gt;контента&lt;br&gt;&lt;/div&gt;" style="ellipse;whiteSpace=wrap;html=1;" parent="1" vertex="1">
          <mxGeometry x="210" y="70" width="120" height="80" as="geometry" />
        </mxCell>
        <mxCell id="bvGx9gOapEIWA2jtWDeD-7" value="&lt;div&gt;Просмотр&lt;/div&gt;&lt;div&gt;жалоб&lt;br&gt;&lt;/div&gt;" style="ellipse;whiteSpace=wrap;html=1;" parent="1" vertex="1">
          <mxGeometry x="430" y="70" width="120" height="80" as="geometry" />
        </mxCell>
        <mxCell id="bvGx9gOapEIWA2jtWDeD-8" value="&lt;div&gt;Блокировка&lt;/div&gt;&lt;div&gt;пользователей&lt;br&gt;&lt;/div&gt;" style="ellipse;whiteSpace=wrap;html=1;" parent="1" vertex="1">
          <mxGeometry x="590" y="90" width="120" height="80" as="geometry" />
        </mxCell>
        <mxCell id="bvGx9gOapEIWA2jtWDeD-12" value="&amp;lt;&amp;lt;Включить&amp;gt;&amp;gt;" style="text;html=1;align=center;verticalAlign=middle;whiteSpace=wrap;rounded=0;" parent="1" vertex="1">
          <mxGeometry x="590" y="210" width="60" height="30" as="geometry" />
        </mxCell>
        <mxCell id="bvGx9gOapEIWA2jtWDeD-13" value="&amp;lt;&amp;lt;Включить&amp;gt;&amp;gt;" style="text;html=1;align=center;verticalAlign=middle;whiteSpace=wrap;rounded=0;" parent="1" vertex="1">
          <mxGeometry x="414" y="170" width="60" height="30" as="geometry" />
        </mxCell>
        <mxCell id="bvGx9gOapEIWA2jtWDeD-14" value="&amp;lt;&amp;lt;Включить&amp;gt;&amp;gt;" style="text;html=1;align=center;verticalAlign=middle;whiteSpace=wrap;rounded=0;" parent="1" vertex="1">
          <mxGeometry x="310" y="190" width="60" height="30" as="geometry" />
        </mxCell>
      </root>
    </mxGraphModel>
  </diagram>
</mxfile>
